<svg xmlns="http://www.w3.org/2000/svg" id="mainLogo" viewBox="0.00 0.00 300.00 300.00 " style="">
  <defs />
  <g data-refid="icon" fill="#fff" data-box="15.00 120.48 53.47 59.04 " transform="matrix(0.11530310333480234 0 0 0.11530310333480236 12.219003850717367 120.48242457652142)">
    <svg id="FLDSRC_ICON" enable-background="new 0 0 512 512" height="512" viewBox="0 0 512 512" width="512" xmlns="http://www.w3.org/2000/svg">
      <g fill="#fff">
        <g fill="#fff">
          <path d="m481.359 90.322-241.828-89.698c-3.07-1.139-6.501-.702-9.188 1.167-2.688 1.869-4.29 4.936-4.29 8.209v123.063l-195.994 87.059c-3.612 1.604-5.94 5.186-5.94 9.139v272.739c0 5.523 4.477 10 10 10h443.763c5.523 0 10-4.477 10-10v-402.302c0-4.182-2.602-7.922-6.523-9.376zm-437.24 362.932h181.934v38.746h-181.934zm127.805-20h-73.677v-59.208h73.677zm159.247 58.746v-92.461h51.592v92.461zm136.711 0h-21.874v-58.182c0-5.523-4.477-10-10-10s-10 4.477-10 10v58.182h-23.245v-102.461c0-5.523-4.477-10-10-10h-71.592c-5.523 0-10 4.477-10 10v102.461h-23.247v-58.182c0-5.523-4.477-10-10-10s-10 4.477-10 10v58.182h-21.871v-151.166c0-5.523-4.477-10-10-10s-10 4.477-10 10v92.42h-34.128v-69.208c0-5.523-4.477-10-10-10h-93.678c-5.523 0-10 4.477-10 10v69.208h-34.128v-197.493l181.934-80.813v95.474c0 5.523 4.477 10 10 10s10-4.477 10-10v-226.047l221.829 82.279z" fill="#fff" />
          <g fill="#fff">
            <path d="m236.05 305.811c-4.169 0-8.009-2.703-9.405-6.632-1.395-3.926-.178-8.449 3.061-11.096 3.284-2.683 8.018-2.987 11.62-.758 3.575 2.212 5.403 6.568 4.479 10.669-1.013 4.506-5.128 7.817-9.755 7.817z" fill="#fff" />
          </g>
          <path d="m181.924 325.47h-93.675c-5.523 0-10-4.477-10-10v-55.483c0-4.024 2.412-7.656 6.122-9.217l62.36-26.241c1.228-.517 2.546-.783 3.878-.783h31.314c5.523 0 10 4.477 10 10v81.724c.001 5.523-4.476 10-9.999 10zm-83.675-20h73.674v-61.724h-19.296l-54.378 22.882z" fill="#fff" />
          <path d="m436.008 217.455h-55.076c-5.523 0-10-4.477-10-10v-68.399c0-3.273 1.602-6.34 4.29-8.209 2.687-1.87 6.119-2.306 9.189-1.167l55.076 20.431c3.921 1.454 6.522 5.194 6.522 9.376v47.968c-.001 5.523-4.478 10-10.001 10zm-45.076-20h35.076v-31.012l-35.076-13.012z" fill="#fff" />
          <path d="m333.011 217.455h-55.085c-5.523 0-10-4.477-10-10v-103.102c0-5.523 4.477-10 10-10h9.446c1.187 0 2.364.211 3.477.624l45.639 16.923c3.921 1.454 6.523 5.194 6.523 9.376v86.179c0 5.523-4.477 10-10 10zm-45.085-20h35.085v-69.222l-35.085-13.01z" fill="#fff" />
          <path d="m436.01 346.838h-55.083c-5.523 0-10-4.477-10-10v-83.161c0-5.523 4.477-10 10-10h55.083c5.523 0 10 4.477 10 10v83.161c0 5.523-4.477 10-10 10zm-45.082-20h35.083v-63.161h-35.083z" fill="#fff" />
          <path d="m333.007 346.838h-55.082c-5.523 0-10-4.477-10-10v-83.161c0-5.523 4.477-10 10-10h55.082c5.523 0 10 4.477 10 10v83.161c0 5.523-4.477 10-10 10zm-45.083-20h35.082v-63.161h-35.082z" fill="#fff" />
        </g>
      </g>
    </svg>
  </g>
  <path data-refid="title" data-textpathprops="{&quot;fontFamily&quot;:&quot;Merriweather Sans&quot;,&quot;fontWeight&quot;:&quot;700&quot;,&quot;fontStyle&quot;:&quot;italic&quot;,&quot;fontSize&quot;:40,&quot;text&quot;:&quot;Stigagangurinn&quot;,&quot;letterSpacing&quot;:0}" fill="#fff" d="M 7.66 0.32L 7.66 0.32Q 6.8 0.32  5.68 0.16Q 4.56 0  3.44-0.27Q 2.32-0.54  1.42-0.87Q 0.52-1.2  0.1-1.54L 0.1-1.54L 2.06-6.44Q 2.64-5.96  3.65-5.5Q 4.66-5.04  5.81-4.76Q 6.96-4.48  7.9-4.48L 7.9-4.48Q 9.42-4.48  10.45-4.89Q 11.48-5.3  12.01-6.09Q 12.54-6.88  12.54-8.02L 12.54-8.02Q 12.54-9.44  11.59-10.6Q 10.64-11.76  8.7-13.14L 8.7-13.14Q 7.12-14.3  5.92-15.59Q 4.72-16.88  4.04-18.37Q 3.36-19.86  3.36-21.6L 3.36-21.6Q 3.36-24.38  4.68-26.29Q 6-28.2  8.28-29.2Q 10.56-30.2  13.4-30.2L 13.4-30.2Q 15.76-30.2  17.61-29.69Q 19.46-29.18  20.34-28.52L 20.34-28.52L 18.44-23.78Q 17.72-24.52  16.24-25Q 14.76-25.48  13.34-25.48L 13.34-25.48Q 12.08-25.48  11.15-25.11Q 10.22-24.74  9.7-24.05Q 9.18-23.36  9.16-22.36L 9.16-22.36Q 9.16-21.4  9.71-20.47Q 10.26-19.54  11.17-18.66Q 12.08-17.78  13.14-16.96L 13.14-16.96Q 14.82-15.7  16.09-14.44Q 17.36-13.18  18.05-11.78Q 18.74-10.38  18.74-8.7L 18.74-8.7Q 18.74-5.62  17.27-3.63Q 15.8-1.64  13.3-0.66Q 10.8 0.32  7.66 0.32ZM 27.28 0.38L 27.28 0.38Q 25.3 0.38  24.14-0.64Q 22.98-1.66  22.98-3.62L 22.98-3.62Q 22.98-3.82  23.03-4.41Q 23.08-5  23.16-5.74Q 23.24-6.48  23.32-7.18L 23.32-7.18L 24.8-18.38L 22.98-18.38L 23.72-22.28L 25.78-22.28L 27.48-27.66L 32.12-27.66L 31.38-22.28L 35.96-22.28L 35.52-18.38L 30.88-18.38Q 30.44-15.14  30.14-12.94Q 29.84-10.74  29.65-9.36Q 29.46-7.98  29.37-7.19Q 29.28-6.4  29.24-6.02Q 29.2-5.64  29.2-5.4L 29.2-5.4Q 29.2-4.72  29.47-4.3Q 29.74-3.88  30.48-3.88L 30.48-3.88Q 30.9-3.88  31.59-4.14Q 32.28-4.4  32.97-4.79Q 33.66-5.18  34.1-5.58L 34.1-5.58L 35-2.62Q 34.14-1.86  32.91-1.18Q 31.68-0.5  30.23-0.06Q 28.78 0.38  27.28 0.38ZM 44.2 0L 38.16 0L 41.2-22.28L 47.28-22.28L 44.2 0ZM 45.08-26L 45.08-26Q 43.92-26  43-26.87Q 42.08-27.74  42.08-28.92L 42.08-28.92Q 42.08-30.42  43.15-31.5Q 44.22-32.58  45.82-32.58L 45.82-32.58Q 47.16-32.58  48.06-31.75Q 48.96-30.92  48.96-29.72L 48.96-29.72Q 48.96-28.14  47.89-27.07Q 46.82-26  45.08-26ZM 56.5 10.02L 56.5 10.02Q 55.62 10.02  54.54 9.9Q 53.46 9.78  52.55 9.59Q 51.64 9.4  51.24 9.2L 51.24 9.2L 52.22 4.72Q 52.68 5.04  53.61 5.4Q 54.54 5.76  55.63 6.02Q 56.72 6.28  57.66 6.28L 57.66 6.28Q 59.74 6.28  60.77 5.17Q 61.8 4.06  62.2 1.88L 62.2 1.88L 63.34-4.62Q 62.28-2.58  60.59-1.13Q 58.9 0.32  56.66 0.32L 56.66 0.32Q 53.36 0.32  51.81-1.98Q 50.26-4.28  50.26-8.06L 50.26-8.06Q 50.26-11.68  51.8-15.02L 51.8-15.02Q 52.8-17.24  54.49-18.95Q 56.18-20.66  58.5-21.61Q 60.82-22.56  63.66-22.56L 63.66-22.56Q 64.78-22.56  66.08-22.32Q 67.38-22.08  68.38-21.74L 68.38-21.74L 71.64-22.56L 68.42 0.92Q 68.18 2.6  67.61 3.95Q 67.04 5.3  66.18 6.32L 66.18 6.32Q 64.48 8.3  61.95 9.16Q 59.42 10.02  56.5 10.02ZM 58.6-3.92L 58.6-3.92Q 59.38-3.92  60.17-4.59Q 60.96-5.26  61.68-6.3Q 62.4-7.34  62.98-8.48Q 63.56-9.62  63.94-10.58L 63.94-10.58L 65.04-18.68Q 64.62-18.78  64.15-18.83Q 63.68-18.88  63.14-18.88L 63.14-18.88Q 61.04-18.88  59.56-17.34L 59.56-17.34Q 58.08-15.78  57.32-13.38Q 56.56-10.98  56.56-8.48L 56.56-8.48Q 56.56-7.08  56.77-6.05Q 56.98-5.02  57.42-4.47Q 57.86-3.92  58.6-3.92ZM 80.84 0.32L 80.84 0.32Q 77.52 0.32  75.97-1.98Q 74.42-4.28  74.42-8.06L 74.42-8.06Q 74.42-11.1  75.37-13.73Q 76.32-16.36  78.09-18.35Q 79.86-20.34  82.31-21.45Q 84.76-22.56  87.78-22.56L 87.78-22.56Q 88.9-22.56  90.19-22.32Q 91.48-22.08  92.52-21.74L 92.52-21.74L 95.7-22.56L 92.58 0L 87.18 0L 87.42-4.5Q 86.38-2.48  84.7-1.08Q 83.02 0.32  80.84 0.32ZM 82.76-3.86L 82.76-3.86Q 83.58-3.86  84.36-4.54Q 85.14-5.22  85.85-6.26Q 86.56-7.3  87.13-8.45Q 87.7-9.6  88.06-10.56L 88.06-10.56L 89.2-18.64Q 88.4-18.88  87.26-18.88L 87.26-18.88Q 85.14-18.88  83.68-17.34L 83.68-17.34Q 82.22-15.78  81.47-13.39Q 80.72-11  80.72-8.48L 80.72-8.48Q 80.72-7.12  80.92-6.07Q 81.12-5.02  81.57-4.44Q 82.02-3.86  82.76-3.86ZM 104.54 10.02L 104.54 10.02Q 103.66 10.02  102.58 9.9Q 101.5 9.78  100.59 9.59Q 99.68 9.4  99.28 9.2L 99.28 9.2L 100.26 4.72Q 100.72 5.04  101.65 5.4Q 102.58 5.76  103.67 6.02Q 104.76 6.28  105.7 6.28L 105.7 6.28Q 107.78 6.28  108.81 5.17Q 109.84 4.06  110.24 1.88L 110.24 1.88L 111.38-4.62Q 110.32-2.58  108.63-1.13Q 106.94 0.32  104.7 0.32L 104.7 0.32Q 101.4 0.32  99.85-1.98Q 98.3-4.28  98.3-8.06L 98.3-8.06Q 98.3-11.68  99.84-15.02L 99.84-15.02Q 100.84-17.24  102.53-18.95Q 104.22-20.66  106.54-21.61Q 108.86-22.56  111.7-22.56L 111.7-22.56Q 112.82-22.56  114.12-22.32Q 115.42-22.08  116.42-21.74L 116.42-21.74L 119.68-22.56L 116.46 0.92Q 116.22 2.6  115.65 3.95Q 115.08 5.3  114.22 6.32L 114.22 6.32Q 112.52 8.3  109.99 9.16Q 107.46 10.02  104.54 10.02ZM 106.64-3.92L 106.64-3.92Q 107.42-3.92  108.21-4.59Q 109-5.26  109.72-6.3Q 110.44-7.34  111.02-8.48Q 111.6-9.62  111.98-10.58L 111.98-10.58L 113.08-18.68Q 112.66-18.78  112.19-18.83Q 111.72-18.88  111.18-18.88L 111.18-18.88Q 109.08-18.88  107.6-17.34L 107.6-17.34Q 106.12-15.78  105.36-13.38Q 104.6-10.98  104.6-8.48L 104.6-8.48Q 104.6-7.08  104.81-6.05Q 105.02-5.02  105.46-4.47Q 105.9-3.92  106.64-3.92ZM 128.88 0.32L 128.88 0.32Q 125.56 0.32  124.01-1.98Q 122.46-4.28  122.46-8.06L 122.46-8.06Q 122.46-11.1  123.41-13.73Q 124.36-16.36  126.13-18.35Q 127.9-20.34  130.35-21.45Q 132.8-22.56  135.82-22.56L 135.82-22.56Q 136.94-22.56  138.23-22.32Q 139.52-22.08  140.56-21.74L 140.56-21.74L 143.74-22.56L 140.62 0L 135.22 0L 135.46-4.5Q 134.42-2.48  132.74-1.08Q 131.06 0.32  128.88 0.32ZM 130.8-3.86L 130.8-3.86Q 131.62-3.86  132.4-4.54Q 133.18-5.22  133.89-6.26Q 134.6-7.3  135.17-8.45Q 135.74-9.6  136.1-10.56L 136.1-10.56L 137.24-18.64Q 136.44-18.88  135.3-18.88L 135.3-18.88Q 133.18-18.88  131.72-17.34L 131.72-17.34Q 130.26-15.78  129.51-13.39Q 128.76-11  128.76-8.48L 128.76-8.48Q 128.76-7.12  128.96-6.07Q 129.16-5.02  129.61-4.44Q 130.06-3.86  130.8-3.86ZM 152.48 0L 146.44 0L 149.48-22.28L 155.26-22.28L 154.94-18.14Q 156.42-20.18  158.4-21.37Q 160.38-22.56  162.6-22.56L 162.6-22.56Q 165.1-22.56  166.39-21.21Q 167.68-19.86  167.68-16.74L 167.68-16.74Q 167.68-16.3  167.57-15.23Q 167.46-14.16  167.27-12.78Q 167.08-11.4  166.88-10L 166.88-10Q 166.82-9.58  166.7-8.66Q 166.58-7.74  166.41-6.55Q 166.24-5.36  166.06-4.11Q 165.88-2.86  165.72-1.78Q 165.56-0.7  165.46 0L 165.46 0L 159.4 0Q 159.62-1.52  159.85-3.13Q 160.08-4.74  160.32-6.46Q 160.56-8.18  160.8-9.98L 160.8-9.98Q 161.08-12.16  161.24-13.59Q 161.4-15.02  161.42-15.8L 161.42-15.8Q 161.44-16.94  161.02-17.38Q 160.6-17.82  159.68-17.82L 159.68-17.82Q 159.08-17.82  158.35-17.49Q 157.62-17.16  156.9-16.59Q 156.18-16.02  155.53-15.29Q 154.88-14.56  154.4-13.74L 154.4-13.74L 152.48 0ZM 177.62 10.02L 177.62 10.02Q 176.74 10.02  175.66 9.9Q 174.58 9.78  173.67 9.59Q 172.76 9.4  172.36 9.2L 172.36 9.2L 173.34 4.72Q 173.8 5.04  174.73 5.4Q 175.66 5.76  176.75 6.02Q 177.84 6.28  178.78 6.28L 178.78 6.28Q 180.86 6.28  181.89 5.17Q 182.92 4.06  183.32 1.88L 183.32 1.88L 184.46-4.62Q 183.4-2.58  181.71-1.13Q 180.02 0.32  177.78 0.32L 177.78 0.32Q 174.48 0.32  172.93-1.98Q 171.38-4.28  171.38-8.06L 171.38-8.06Q 171.38-11.68  172.92-15.02L 172.92-15.02Q 173.92-17.24  175.61-18.95Q 177.3-20.66  179.62-21.61Q 181.94-22.56  184.78-22.56L 184.78-22.56Q 185.9-22.56  187.2-22.32Q 188.5-22.08  189.5-21.74L 189.5-21.74L 192.76-22.56L 189.54 0.92Q 189.3 2.6  188.73 3.95Q 188.16 5.3  187.3 6.32L 187.3 6.32Q 185.6 8.3  183.07 9.16Q 180.54 10.02  177.62 10.02ZM 179.72-3.92L 179.72-3.92Q 180.5-3.92  181.29-4.59Q 182.08-5.26  182.8-6.3Q 183.52-7.34  184.1-8.48Q 184.68-9.62  185.06-10.58L 185.06-10.58L 186.16-18.68Q 185.74-18.78  185.27-18.83Q 184.8-18.88  184.26-18.88L 184.26-18.88Q 182.16-18.88  180.68-17.34L 180.68-17.34Q 179.2-15.78  178.44-13.38Q 177.68-10.98  177.68-8.48L 177.68-8.48Q 177.68-7.08  177.89-6.05Q 178.1-5.02  178.54-4.47Q 178.98-3.92  179.72-3.92ZM 201.62 0.4L 201.62 0.4Q 199.16 0.4  197.7-0.86Q 196.24-2.12  196.24-4.9L 196.24-4.9Q 196.24-5.82  196.4-7.37Q 196.56-8.92  196.86-11.06L 196.86-11.06Q 197.1-12.82  197.36-14.72Q 197.62-16.62  197.89-18.54Q 198.16-20.46  198.4-22.28L 198.4-22.28L 204.42-22.28Q 204.32-21.44  204.17-20.35Q 204.02-19.26  203.86-18.03Q 203.7-16.8  203.53-15.55Q 203.36-14.3  203.2-13.13Q 203.04-11.96  202.92-11L 202.92-11Q 202.68-9.18  202.57-7.98Q 202.46-6.78  202.46-6.2L 202.46-6.2Q 202.46-5.12  202.92-4.61Q 203.38-4.1  204.18-4.1L 204.18-4.1Q 204.96-4.1  205.83-4.64Q 206.7-5.18  207.55-6.09Q 208.4-7  209.1-8.14L 209.1-8.14L 211.04-22.28L 217.08-22.28L 214.06 0L 208.62 0L 208.84-3.92Q 207.6-2.08  205.7-0.84Q 203.8 0.4  201.62 0.4ZM 226.14 0L 220.1 0L 223.14-22.28L 228.96-22.28L 228.62-17.84Q 229.1-19.02  229.98-20.1Q 230.86-21.18  232.06-21.87Q 233.26-22.56  234.66-22.56L 234.66-22.56Q 235.7-22.56  235.98-22.32L 235.98-22.32L 234.84-16.12Q 234.66-16.34  234.1-16.45Q 233.54-16.56  232.94-16.56L 232.94-16.56Q 231.96-16.56  231.11-16.21Q 230.26-15.86  229.52-15.23Q 228.78-14.6  228.1-13.76L 228.1-13.76L 226.14 0ZM 243.42 0L 237.38 0L 240.42-22.28L 246.5-22.28L 243.42 0ZM 244.3-26L 244.3-26Q 243.14-26  242.22-26.87Q 241.3-27.74  241.3-28.92L 241.3-28.92Q 241.3-30.42  242.37-31.5Q 243.44-32.58  245.04-32.58L 245.04-32.58Q 246.38-32.58  247.28-31.75Q 248.18-30.92  248.18-29.72L 248.18-29.72Q 248.18-28.14  247.11-27.07Q 246.04-26  244.3-26ZM 255.62 0L 249.58 0L 252.62-22.28L 258.4-22.28L 258.08-18.14Q 259.56-20.18  261.54-21.37Q 263.52-22.56  265.74-22.56L 265.74-22.56Q 268.24-22.56  269.53-21.21Q 270.82-19.86  270.82-16.74L 270.82-16.74Q 270.82-16.3  270.71-15.23Q 270.6-14.16  270.41-12.78Q 270.22-11.4  270.02-10L 270.02-10Q 269.96-9.58  269.84-8.66Q 269.72-7.74  269.55-6.55Q 269.38-5.36  269.2-4.11Q 269.02-2.86  268.86-1.78Q 268.7-0.7  268.6 0L 268.6 0L 262.54 0Q 262.76-1.52  262.99-3.13Q 263.22-4.74  263.46-6.46Q 263.7-8.18  263.94-9.98L 263.94-9.98Q 264.22-12.16  264.38-13.59Q 264.54-15.02  264.56-15.8L 264.56-15.8Q 264.58-16.94  264.16-17.38Q 263.74-17.82  262.82-17.82L 262.82-17.82Q 262.22-17.82  261.49-17.49Q 260.76-17.16  260.04-16.59Q 259.32-16.02  258.67-15.29Q 258.02-14.56  257.54-13.74L 257.54-13.74L 255.62 0ZM 280.66 0L 274.62 0L 277.66-22.28L 283.44-22.28L 283.12-18.14Q 284.6-20.18  286.58-21.37Q 288.56-22.56  290.78-22.56L 290.78-22.56Q 293.28-22.56  294.57-21.21Q 295.86-19.86  295.86-16.74L 295.86-16.74Q 295.86-16.3  295.75-15.23Q 295.64-14.16  295.45-12.78Q 295.26-11.4  295.06-10L 295.06-10Q 295-9.58  294.88-8.66Q 294.76-7.74  294.59-6.55Q 294.42-5.36  294.24-4.11Q 294.06-2.86  293.9-1.78Q 293.74-0.7  293.64 0L 293.64 0L 287.58 0Q 287.8-1.52  288.03-3.13Q 288.26-4.74  288.5-6.46Q 288.74-8.18  288.98-9.98L 288.98-9.98Q 289.26-12.16  289.42-13.59Q 289.58-15.02  289.6-15.8L 289.6-15.8Q 289.62-16.94  289.2-17.38Q 288.78-17.82  287.86-17.82L 287.86-17.82Q 287.26-17.82  286.53-17.49Q 285.8-17.16  285.08-16.59Q 284.36-16.02  283.71-15.29Q 283.06-14.56  282.58-13.74L 282.58-13.74L 280.66 0Z" data-box="77.47 125.15 207.53 29.89 " transform="matrix(0.7016726446879888 0 0 0.7016726446879888 77.40314590264391 148.01486791388086)" />
  <path data-refid="slogan" data-textpathprops="{&quot;fontFamily&quot;:&quot;Open Sans&quot;,&quot;fontWeight&quot;:&quot;400&quot;,&quot;fontStyle&quot;:&quot;italic&quot;,&quot;fontSize&quot;:14,&quot;text&quot;:&quot;Taktu þér frí frá húsfélaginu. &quot;,&quot;letterSpacing&quot;:0}" fill="#fff" d="M 5.24-8.96L 3.33 0L 2.15 0L 4.05-8.96L 1.27-8.96L 1.5-9.99L 8.23-9.99L 8.03-8.96L 5.24-8.96ZM 11.343-7.63L 11.343-7.63Q 11.973-7.63  12.463-7.29Q 12.953-6.95  13.223-6.32L 13.223-6.32L 13.303-6.32L 13.763-7.49L 14.633-7.49L 13.033 0L 12.123 0L 12.303-1.43L 12.253-1.43Q 11.023 0.14  9.673 0.14L 9.673 0.14Q 8.723 0.14  8.183-0.54Q 7.643-1.22  7.643-2.39L 7.643-2.39Q 7.643-3.81  8.133-5.03Q 8.613-6.25  9.473-6.94Q 10.323-7.63  11.343-7.63ZM 10.043-0.81L 10.043-0.81Q 10.703-0.81  11.363-1.45Q 12.013-2.08  12.433-3.09Q 12.843-4.11  12.843-5.13L 12.843-5.13Q 12.843-5.83  12.453-6.25Q 12.073-6.67  11.453-6.67L 11.453-6.67Q 10.743-6.67  10.123-6.08Q 9.513-5.49  9.163-4.48Q 8.823-3.48  8.823-2.37L 8.823-2.37Q 8.823-1.59  9.143-1.2Q 9.463-0.81  10.043-0.81ZM 17.112-3.82L 17.142-3.82L 20.732-7.49L 22.112-7.49L 18.902-4.3L 20.922 0L 19.642 0L 18.032-3.58L 16.992-2.74L 16.432 0L 15.272 0L 17.532-10.64L 18.692-10.64Q 18.202-8.34  17.812-6.52Q 17.422-4.7  17.112-3.82L 17.112-3.82ZM 24.411-0.8L 24.411-0.8Q 24.791-0.8  25.391-0.98L 25.391-0.98L 25.391-0.1Q 25.161 0  24.821 0.07Q 24.481 0.14  24.271 0.14L 24.271 0.14Q 23.421 0.14  22.961-0.27Q 22.511-0.68  22.511-1.48L 22.511-1.48Q 22.511-1.93  22.631-2.51L 22.631-2.51L 23.501-6.62L 22.331-6.62L 22.421-7.12L 23.691-7.66L 24.541-9.21L 25.211-9.21L 24.831-7.49L 26.711-7.49L 26.531-6.62L 24.661-6.62L 23.781-2.5Q 23.661-1.9  23.661-1.59L 23.661-1.59Q 23.661-1.21  23.861-1Q 24.051-0.8  24.411-0.8ZM 28.17-7.49L 29.33-7.49L 28.31-2.74Q 28.18-2.13  28.18-1.79L 28.18-1.79Q 28.18-0.81  29.19-0.81L 29.19-0.81Q 29.79-0.81  30.37-1.22Q 30.95-1.63  31.4-2.4Q 31.84-3.17  32.07-4.25L 32.07-4.25L 32.76-7.49L 33.89-7.49L 32.31 0L 31.36 0L 31.51-1.39L 31.43-1.39Q 30.76-0.53  30.15-0.2Q 29.54 0.14  28.9 0.14L 28.9 0.14Q 28.02 0.14  27.52-0.34Q 27.02-0.81  27.02-1.7L 27.02-1.7Q 27.02-2.12  27.17-2.87L 27.17-2.87L 28.17-7.49ZM 41.697 0.14L 41.697 0.14Q 41.027 0.14  40.517-0.21Q 40.007-0.56  39.747-1.16L 39.747-1.16L 39.677-1.16Q 39.617-0.45  39.507 0.04L 39.507 0.04L 38.807 3.36L 37.677 3.36L 40.627-10.64L 41.777-10.64Q 41.127-7.62  40.987-7.07Q 40.847-6.51  40.717-6.05L 40.717-6.05L 40.787-6.05Q 41.477-6.9  42.077-7.26Q 42.677-7.62  43.327-7.62L 43.327-7.62Q 44.277-7.62  44.817-6.95Q 45.357-6.28  45.357-5.08L 45.357-5.08Q 45.357-3.63  44.887-2.42Q 44.417-1.21  43.577-0.54Q 42.747 0.14  41.697 0.14ZM 42.967-6.67L 42.967-6.67Q 42.307-6.67  41.627-6.02Q 40.947-5.37  40.547-4.38Q 40.147-3.4  40.147-2.37L 40.147-2.37Q 40.147-1.61  40.527-1.21Q 40.907-0.81  41.627-0.81L 41.627-0.81Q 42.297-0.81  42.887-1.37Q 43.467-1.92  43.827-2.94Q 44.177-3.96  44.177-5.11L 44.177-5.11Q 44.177-6.67  42.967-6.67ZM 49.407 0.14L 49.407 0.14Q 48.157 0.14  47.437-0.61Q 46.717-1.35  46.717-2.67L 46.717-2.67Q 46.717-3.96  47.227-5.14Q 47.737-6.32  48.577-6.97Q 49.417-7.63  50.427-7.63L 50.427-7.63Q 51.477-7.63  51.997-7.17Q 52.527-6.72  52.527-5.91L 52.527-5.91Q 52.527-4.68  51.397-3.98Q 50.257-3.27  48.147-3.27L 48.147-3.27L 47.917-3.27L 47.897-2.73Q 47.897-1.83  48.317-1.33Q 48.737-0.83  49.617-0.83L 49.617-0.83Q 50.047-0.83  50.497-0.95Q 50.957-1.07  51.627-1.4L 51.627-1.4L 51.627-0.4Q 50.987-0.1  50.497 0.02Q 50.007 0.14  49.407 0.14ZM 50.357-6.65L 50.357-6.65Q 49.657-6.65  49.037-6.01Q 48.417-5.37  48.087-4.22L 48.087-4.22L 48.177-4.22Q 49.727-4.22  50.567-4.63Q 51.397-5.04  51.397-5.81L 51.397-5.81Q 51.397-6.17  51.147-6.41Q 50.897-6.65  50.357-6.65ZM 50.047-8.48L 50.047-8.67Q 50.427-9.08  50.907-9.7Q 51.377-10.33  51.627-10.73L 51.627-10.73L 52.927-10.73L 52.927-10.58Q 52.667-10.25  51.977-9.55Q 51.277-8.85  50.767-8.48L 50.767-8.48L 50.047-8.48ZM 58.091-7.63L 58.091-7.63Q 58.561-7.63  58.911-7.53L 58.911-7.53L 58.661-6.51Q 58.301-6.6  57.951-6.6L 57.951-6.6Q 57.331-6.6  56.781-6.19Q 56.241-5.78  55.831-5.05Q 55.421-4.32  55.231-3.43L 55.231-3.43L 54.501 0L 53.351 0L 54.951-7.49L 55.901-7.49L 55.751-6.1L 55.821-6.1Q 56.311-6.75  56.631-7.04Q 56.961-7.32  57.311-7.48Q 57.661-7.63  58.091-7.63ZM 61.422 3.36L 61.422 3.36Q 60.952 3.36 60.562 3.22L 60.562 3.22L 60.562 2.26Q 61.002 2.41 61.332 2.41L 61.332 2.41Q 61.852 2.41  62.132 1.98Q 62.412 1.56  62.582 0.77L 62.582 0.77L 64.132-6.62L 62.812-6.62L 62.902-7.08L 64.312-7.53L 64.472-8.22Q 64.782-9.58  65.342-10.15Q 65.902-10.71  66.992-10.71L 66.992-10.71Q 67.262-10.71  67.662-10.63Q 68.062-10.55  68.282-10.46L 68.282-10.46L 67.982-9.58Q 67.462-9.78  67.052-9.78L 67.052-9.78Q 66.452-9.78  66.132-9.44Q 65.812-9.11  65.622-8.23L 65.622-8.23L 65.452-7.49L 67.072-7.49L 66.902-6.62L 65.282-6.62L 63.702 0.88Q 63.432 2.17  62.882 2.77Q 62.322 3.36 61.422 3.36ZM 71.654-7.63L 71.654-7.63Q 72.124-7.63  72.474-7.53L 72.474-7.53L 72.224-6.51Q 71.864-6.6  71.514-6.6L 71.514-6.6Q 70.894-6.6  70.344-6.19Q 69.804-5.78  69.394-5.05Q 68.984-4.32  68.794-3.43L 68.794-3.43L 68.064 0L 66.914 0L 68.514-7.49L 69.464-7.49L 69.314-6.1L 69.384-6.1Q 69.874-6.75  70.194-7.04Q 70.524-7.32  70.874-7.48Q 71.224-7.63  71.654-7.63ZM 75.208-7.49L 73.608 0L 72.458 0L 74.058-7.49L 75.208-7.49ZM 74.268-8.48L 74.268-8.67Q 74.658-9.08  75.128-9.7Q 75.608-10.33  75.858-10.73L 75.858-10.73L 77.158-10.73L 77.158-10.58Q 76.898-10.25  76.198-9.55Q 75.508-8.85  74.988-8.48L 74.988-8.48L 74.268-8.48ZM 78.539 3.36L 78.539 3.36Q 78.069 3.36 77.679 3.22L 77.679 3.22L 77.679 2.26Q 78.119 2.41 78.449 2.41L 78.449 2.41Q 78.969 2.41  79.249 1.98Q 79.529 1.56  79.699 0.77L 79.699 0.77L 81.249-6.62L 79.929-6.62L 80.019-7.08L 81.429-7.53L 81.589-8.22Q 81.899-9.58  82.459-10.15Q 83.019-10.71  84.109-10.71L 84.109-10.71Q 84.379-10.71  84.779-10.63Q 85.179-10.55  85.399-10.46L 85.399-10.46L 85.099-9.58Q 84.579-9.78  84.169-9.78L 84.169-9.78Q 83.569-9.78  83.249-9.44Q 82.929-9.11  82.739-8.23L 82.739-8.23L 82.569-7.49L 84.189-7.49L 84.019-6.62L 82.399-6.62L 80.819 0.88Q 80.549 2.17  79.999 2.77Q 79.439 3.36 78.539 3.36ZM 88.771-7.63L 88.771-7.63Q 89.241-7.63  89.591-7.53L 89.591-7.53L 89.341-6.51Q 88.981-6.6  88.631-6.6L 88.631-6.6Q 88.011-6.6  87.461-6.19Q 86.921-5.78  86.511-5.05Q 86.101-4.32  85.911-3.43L 85.911-3.43L 85.181 0L 84.031 0L 85.631-7.49L 86.581-7.49L 86.431-6.1L 86.501-6.1Q 86.991-6.75  87.311-7.04Q 87.641-7.32  87.991-7.48Q 88.341-7.63  88.771-7.63ZM 93.545-7.63L 93.545-7.63Q 94.175-7.63  94.665-7.29Q 95.155-6.95  95.425-6.32L 95.425-6.32L 95.505-6.32L 95.965-7.49L 96.835-7.49L 95.235 0L 94.325 0L 94.505-1.43L 94.455-1.43Q 93.225 0.14  91.875 0.14L 91.875 0.14Q 90.925 0.14  90.385-0.54Q 89.845-1.22  89.845-2.39L 89.845-2.39Q 89.845-3.81  90.335-5.03Q 90.815-6.25  91.675-6.94Q 92.525-7.63  93.545-7.63ZM 92.245-0.81L 92.245-0.81Q 92.905-0.81  93.565-1.45Q 94.215-2.08  94.635-3.09Q 95.045-4.11  95.045-5.13L 95.045-5.13Q 95.045-5.83  94.655-6.25Q 94.275-6.67  93.655-6.67L 93.655-6.67Q 92.945-6.67  92.325-6.08Q 91.715-5.49  91.365-4.48Q 91.025-3.48  91.025-2.37L 91.025-2.37Q 91.025-1.59  91.345-1.2Q 91.665-0.81  92.245-0.81ZM 93.275-8.48L 93.275-8.67Q 93.655-9.08  94.135-9.7Q 94.605-10.33  94.865-10.73L 94.865-10.73L 96.165-10.73L 96.165-10.58Q 95.905-10.25  95.205-9.55Q 94.505-8.85  93.995-8.48L 93.995-8.48L 93.275-8.48ZM 106.851 0L 105.701 0L 106.721-4.73Q 106.841-5.37  106.841-5.65L 106.841-5.65Q 106.841-6.67  105.831-6.67L 105.831-6.67Q 105.221-6.67  104.651-6.26Q 104.071-5.86  103.631-5.09Q 103.191-4.32  102.961-3.23L 102.961-3.23L 102.271 0L 101.121 0L 103.381-10.64L 104.531-10.64Q 104.401-10.08  104.291-9.55Q 104.181-9.02  104.061-8.48Q 103.941-7.94  103.801-7.34Q 103.661-6.75  103.471-6.05L 103.471-6.05L 103.551-6.05Q 104.191-6.89  104.821-7.25Q 105.441-7.62  106.131-7.62L 106.131-7.62Q 107.021-7.62  107.511-7.12Q 108.001-6.63  108.001-5.73L 108.001-5.73Q 108.001-5.3  107.841-4.59L 107.841-4.59Q 107.581-3.27  106.851 0L 106.851 0ZM 110.721-7.49L 111.881-7.49L 110.861-2.74Q 110.731-2.13  110.731-1.79L 110.731-1.79Q 110.731-0.81  111.741-0.81L 111.741-0.81Q 112.341-0.81  112.921-1.22Q 113.501-1.63  113.951-2.4Q 114.391-3.17  114.621-4.25L 114.621-4.25L 115.311-7.49L 116.441-7.49L 114.861 0L 113.911 0L 114.061-1.39L 113.981-1.39Q 113.311-0.53  112.701-0.2Q 112.091 0.14  111.451 0.14L 111.451 0.14Q 110.571 0.14  110.071-0.34Q 109.571-0.81  109.571-1.7L 109.571-1.7Q 109.571-2.12  109.721-2.87L 109.721-2.87L 110.721-7.49ZM 113.151-8.48L 113.151-8.67Q 113.531-9.08  114.011-9.7Q 114.481-10.33  114.731-10.73L 114.731-10.73L 116.031-10.73L 116.031-10.58Q 115.771-10.25  115.081-9.55Q 114.381-8.85  113.871-8.48L 113.871-8.48L 113.151-8.48ZM 121.901-2.13L 121.901-2.13Q 121.901-1.06  121.151-0.46Q 120.391 0.14  119.021 0.14L 119.021 0.14Q 117.861 0.14  116.931-0.33L 116.931-0.33L 116.931-1.42Q 117.411-1.13  117.971-0.97Q 118.521-0.81  118.991-0.81L 118.991-0.81Q 119.851-0.81  120.291-1.16Q 120.731-1.5  120.731-2.03L 120.731-2.03Q 120.731-2.42  120.491-2.69Q 120.251-2.95  119.461-3.42L 119.461-3.42Q 118.571-3.92  118.201-4.4Q 117.831-4.87  117.831-5.53L 117.831-5.53Q 117.831-6.47  118.521-7.05Q 119.211-7.63  120.341-7.63L 120.341-7.63Q 121.511-7.63  122.591-7.12L 122.591-7.12L 122.231-6.19L 121.841-6.36Q 121.151-6.65  120.341-6.65L 120.341-6.65Q 119.701-6.65  119.341-6.35Q 118.981-6.06  118.981-5.58L 118.981-5.58Q 118.981-5.2  119.221-4.93Q 119.461-4.66  120.221-4.22L 120.221-4.22Q 120.951-3.81  121.271-3.52Q 121.591-3.23  121.751-2.89Q 121.901-2.55  121.901-2.13ZM 122.166 3.36L 122.166 3.36Q 121.696 3.36 121.306 3.22L 121.306 3.22L 121.306 2.26Q 121.746 2.41 122.076 2.41L 122.076 2.41Q 122.596 2.41  122.876 1.98Q 123.156 1.56  123.326 0.77L 123.326 0.77L 124.876-6.62L 123.556-6.62L 123.646-7.08L 125.056-7.53L 125.216-8.22Q 125.526-9.58  126.086-10.15Q 126.646-10.71  127.736-10.71L 127.736-10.71Q 128.006-10.71  128.406-10.63Q 128.806-10.55  129.026-10.46L 129.026-10.46L 128.726-9.58Q 128.206-9.78  127.796-9.78L 127.796-9.78Q 127.196-9.78  126.876-9.44Q 126.556-9.11  126.366-8.23L 126.366-8.23L 126.196-7.49L 127.816-7.49L 127.646-6.62L 126.026-6.62L 124.446 0.88Q 124.176 2.17  123.626 2.77Q 123.066 3.36 122.166 3.36ZM 130.618 0.14L 130.618 0.14Q 129.368 0.14  128.648-0.61Q 127.928-1.35  127.928-2.67L 127.928-2.67Q 127.928-3.96  128.438-5.14Q 128.948-6.32  129.788-6.97Q 130.628-7.63  131.638-7.63L 131.638-7.63Q 132.688-7.63  133.208-7.17Q 133.738-6.72  133.738-5.91L 133.738-5.91Q 133.738-4.68  132.608-3.98Q 131.468-3.27  129.358-3.27L 129.358-3.27L 129.128-3.27L 129.108-2.73Q 129.108-1.83  129.528-1.33Q 129.948-0.83  130.828-0.83L 130.828-0.83Q 131.258-0.83  131.708-0.95Q 132.168-1.07  132.838-1.4L 132.838-1.4L 132.838-0.4Q 132.198-0.1  131.708 0.02Q 131.218 0.14  130.618 0.14ZM 131.568-6.65L 131.568-6.65Q 130.868-6.65  130.248-6.01Q 129.628-5.37  129.298-4.22L 129.298-4.22L 129.388-4.22Q 130.938-4.22  131.778-4.63Q 132.608-5.04  132.608-5.81L 132.608-5.81Q 132.608-6.17  132.358-6.41Q 132.108-6.65  131.568-6.65ZM 131.258-8.48L 131.258-8.67Q 131.638-9.08  132.118-9.7Q 132.588-10.33  132.838-10.73L 132.838-10.73L 134.138-10.73L 134.138-10.58Q 133.878-10.25  133.188-9.55Q 132.488-8.85  131.978-8.48L 131.978-8.48L 131.258-8.48ZM 137.972-10.64L 135.702 0L 134.552 0L 136.822-10.64L 137.972-10.64ZM 142.087-7.63L 142.087-7.63Q 142.717-7.63  143.207-7.29Q 143.697-6.95  143.967-6.32L 143.967-6.32L 144.047-6.32L 144.507-7.49L 145.377-7.49L 143.777 0L 142.867 0L 143.047-1.43L 142.997-1.43Q 141.767 0.14  140.417 0.14L 140.417 0.14Q 139.467 0.14  138.927-0.54Q 138.387-1.22  138.387-2.39L 138.387-2.39Q 138.387-3.81  138.877-5.03Q 139.357-6.25  140.217-6.94Q 141.067-7.63  142.087-7.63ZM 140.787-0.81L 140.787-0.81Q 141.447-0.81  142.107-1.45Q 142.757-2.08  143.177-3.09Q 143.587-4.11  143.587-5.13L 143.587-5.13Q 143.587-5.83  143.197-6.25Q 142.817-6.67  142.197-6.67L 142.197-6.67Q 141.487-6.67  140.867-6.08Q 140.257-5.49  139.907-4.48Q 139.567-3.48  139.567-2.37L 139.567-2.37Q 139.567-1.59  139.887-1.2Q 140.207-0.81  140.787-0.81ZM 150.606-7.49L 153.146-7.49L 152.976-6.76L 151.536-6.6Q 151.816-6.17  151.816-5.52L 151.816-5.52Q 151.816-4.21  151.016-3.44Q 150.216-2.66  148.886-2.66L 148.886-2.66Q 148.506-2.66  148.316-2.71L 148.316-2.71Q 147.366-2.35  147.366-1.82L 147.366-1.82Q 147.366-1.54  147.586-1.45Q 147.816-1.35  148.246-1.3L 148.246-1.3L 149.046-1.2Q 150.286-1.05  150.836-0.6Q 151.396-0.15  151.396 0.72L 151.396 0.72Q 151.396 1.98  150.396 2.67Q 149.396 3.36  147.586 3.36L 147.586 3.36Q 146.266 3.36 145.506 2.86Q 144.756 2.36 144.756 1.44L 144.756 1.44Q 144.756 0.72 145.246 0.2Q 145.746-0.33  146.846-0.7L 146.846-0.7Q 146.306-0.98  146.306-1.52L 146.306-1.52Q 146.306-2  146.656-2.33Q 147.006-2.67  147.626-2.97L 147.626-2.97Q 147.196-3.19  146.926-3.61Q 146.656-4.04  146.656-4.61L 146.656-4.61Q 146.656-5.93  147.466-6.78Q 148.286-7.63  149.556-7.63L 149.556-7.63Q 150.086-7.63  150.606-7.49L 150.606-7.49ZM 145.866 1.33L 145.866 1.33Q 145.866 1.86  146.306 2.17Q 146.756 2.47  147.626 2.47L 147.626 2.47Q 148.876 2.47  149.576 2.04Q 150.276 1.61  150.276 0.81L 150.276 0.81Q 150.276 0.39  149.906 0.14Q 149.536-0.1  148.646-0.2L 148.646-0.2L 147.556-0.31Q 146.736-0.14  146.306 0.29Q 145.866 0.72  145.866 1.33ZM 147.766-4.65L 147.766-4.65Q 147.766-4.07  148.076-3.76Q 148.376-3.46  148.926-3.46L 148.926-3.46Q 149.466-3.46  149.876-3.75Q 150.276-4.03  150.486-4.54Q 150.706-5.04  150.706-5.63L 150.706-5.63Q 150.706-6.19  150.406-6.48Q 150.106-6.77  149.546-6.77L 149.546-6.77Q 149.006-6.77  148.606-6.5Q 148.206-6.22  147.986-5.73Q 147.766-5.23  147.766-4.65ZM 155.79-7.49L 154.19 0L 153.04 0L 154.64-7.49L 155.79-7.49ZM 154.96-9.41L 154.96-9.41Q 154.96-9.79  155.18-10.03Q 155.4-10.27  155.75-10.27L 155.75-10.27Q 156.35-10.27  156.35-9.66L 156.35-9.66Q 156.35-9.28  156.12-9.02Q 155.89-8.76  155.59-8.76L 155.59-8.76Q 155.32-8.76  155.14-8.93Q 154.96-9.1  154.96-9.41ZM 162.344 0L 161.174 0L 162.194-4.73Q 162.324-5.44  162.324-5.71L 162.324-5.71Q 162.324-6.15  162.084-6.41Q 161.844-6.67  161.304-6.67L 161.304-6.67Q 160.694-6.67  160.124-6.25Q 159.544-5.84  159.104-5.09Q 158.664-4.33  158.434-3.25L 158.434-3.25L 157.744 0L 156.594 0L 158.194-7.49L 159.144-7.49L 158.994-6.1L 159.064-6.1Q 159.724-6.94  160.334-7.28Q 160.944-7.63  161.604-7.63L 161.604-7.63Q 162.474-7.63  162.974-7.15Q 163.474-6.68  163.474-5.82L 163.474-5.82Q 163.474-5.28  163.314-4.59L 163.314-4.59L 162.344 0ZM 166.194-7.49L 167.354-7.49L 166.334-2.74Q 166.204-2.13  166.204-1.79L 166.204-1.79Q 166.204-0.81  167.214-0.81L 167.214-0.81Q 167.814-0.81  168.394-1.22Q 168.974-1.63  169.424-2.4Q 169.864-3.17  170.094-4.25L 170.094-4.25L 170.784-7.49L 171.914-7.49L 170.334 0L 169.384 0L 169.534-1.39L 169.454-1.39Q 168.784-0.53  168.174-0.2Q 167.564 0.14  166.924 0.14L 166.924 0.14Q 166.044 0.14  165.544-0.34Q 165.044-0.81  165.044-1.7L 165.044-1.7Q 165.044-2.12  165.194-2.87L 165.194-2.87L 166.194-7.49ZM 172.644-0.51L 172.644-0.51Q 172.644-1.03  172.924-1.34Q 173.204-1.65  173.684-1.65L 173.684-1.65Q 173.984-1.65  174.164-1.48Q 174.344-1.3  174.344-0.94L 174.344-0.94Q 174.344-0.45  174.074-0.13Q 173.794 0.2  173.334 0.2L 173.334 0.2Q 173.014 0.2  172.834 0.02Q 172.644-0.16  172.644-0.51Z" data-box="77.47 162.25 154.77 12.60 " transform="matrix(0.8942512323313051 0 0 0.8942512323313052 76.33761412015402 171.84094344841395)" />
</svg>